<?xml version="1.0" standalone="no"?>
<!DOCTYPE svg PUBLIC "-//W3C//DTD SVG 20010904//EN"
 "http://www.w3.org/TR/2001/REC-SVG-20010904/DTD/svg10.dtd">
<svg version="1.0" xmlns="http://www.w3.org/2000/svg"
 width="500.000000pt" height="500.000000pt" viewBox="0 0 500.000000 500.000000"
 preserveAspectRatio="xMidYMid meet">
<metadata>
Created by potrace 1.14, written by Peter Selinger 2001-2017
</metadata>
<g transform="translate(0.000000,500.000000) scale(0.100000,-0.100000)"
fill="#000000" stroke="none">
<path d="M1570 4133 c-7 -16 -165 -363 -352 -773 -186 -410 -355 -774 -375
-810 -79 -147 -151 -209 -260 -226 -24 -4 -43 -12 -43 -19 0 -10 81 -12 365
-12 292 0 365 2 365 13 0 8 -21 15 -57 19 -118 15 -214 81 -229 160 -15 84 1
153 74 320 l70 160 366 3 366 2 12 -25 c6 -14 14 -25 17 -25 4 0 51 74 104
164 l99 164 -232 456 c-202 399 -234 456 -254 456 -15 0 -27 -9 -36 -27z m76
-744 c91 -182 163 -333 161 -335 -2 -2 -146 -3 -320 -2 l-316 3 143 315 c78
173 145 323 149 333 3 9 9 17 12 17 3 0 79 -149 171 -331z"/>
<path d="M2170 2419 c-674 -711 -1229 -1303 -1235 -1316 -13 -34 5 -58 42 -58
27 0 155 132 1248 1285 670 707 1224 1295 1232 1308 14 20 14 25 -1 47 -9 14
-26 25 -39 25 -16 0 -337 -332 -1247 -1291z"/>
<path d="M3793 2668 c-12 -13 -146 -309 -298 -658 -152 -349 -282 -645 -289
-658 -11 -21 -27 5 -207 343 -171 324 -198 370 -232 392 -21 13 -44 26 -50 28
-12 5 -177 -263 -177 -287 0 -7 114 -229 253 -493 221 -419 256 -480 276 -480
20 0 50 66 323 708 166 389 305 704 308 700 4 -5 21 -292 38 -638 34 -673 34
-690 -13 -721 -14 -9 -58 -21 -100 -26 -51 -8 -75 -15 -75 -25 0 -11 69 -13
385 -13 319 0 385 2 385 14 0 14 -48 26 -107 26 -43 0 -90 41 -103 91 -15 54
-90 1476 -81 1525 18 95 83 146 205 160 37 5 56 11 56 20 0 11 -44 14 -238 14
-234 0 -239 0 -259 -22z"/>
<path d="M2229 1327 c-30 -51 -38 -78 -47 -154 -12 -105 -34 -162 -82 -217
-39 -44 -88 -71 -147 -81 -27 -4 -43 -12 -43 -21 0 -12 50 -14 310 -14 256 0
310 2 310 14 0 8 -22 18 -61 25 -52 11 -68 19 -109 60 -67 67 -83 120 -89 303
l-6 146 -36 -61z"/>
</g>
</svg>
